{"glyphs":{":":{"x_min":0,"x_max":282,"ha":282,"o":"m 141 342 b 197 342 242 387 242 443 b 242 499 197 544 141 544 b 85 544 40 499 40 443 b 40 387 85 342 141 342 z m 141 185 b 85 185 40 140 40 84 b 40 29 85 -16 141 -16 b 197 -16 242 29 242 84 b 242 140 197 185 141 185 z"},"$":{"x_min":0,"x_max":720,"ha":720,"o":"m 684 225 b 684 396 555 422 438 432 l 438 506 b 462 492 488 480 523 480 l 525 481 b 561 489 588 515 599 549 b 611 584 603 621 579 649 b 550 683 504 721 438 741 l 438 801 b 438 843 404 877 362 877 b 321 877 287 843 287 801 l 287 754 b 140 737 41 638 41 503 b 41 357 170 327 287 309 l 287 210 b 210 233 227 296 149 296 b 84 296 52 226 64 174 b 66 162 101 24 287 -5 l 287 -41 b 287 -83 321 -117 362 -117 b 404 -117 438 -83 438 -41 l 438 -5 b 651 26 684 178 684 225 z m 252 503 b 252 523 268 534 287 540 l 287 454 b 265 464 252 478 252 503 z m 438 204 l 438 279 b 460 269 473 256 473 235 b 473 217 458 208 438 204 z"},"?":{"x_min":0,"x_max":615,"ha":615,"o":"m 289 804 b 155 804 94 748 47 696 b 23 669 15 631 26 596 b 37 561 65 536 100 527 b 137 519 175 531 200 559 b 221 582 251 593 289 593 b 303 593 371 591 371 550 b 371 527 371 508 294 504 l 269 504 b 211 504 163 456 163 398 l 163 145 b 163 87 211 39 269 39 b 327 39 374 87 374 145 l 374 326 b 508 345 581 423 581 550 b 581 699 461 804 289 804 z m 274 -177 b 330 -177 375 -132 375 -76 b 375 -20 330 25 274 25 b 218 25 173 -20 173 -76 b 173 -132 218 -177 274 -177 z"},"<":{"x_min":0,"x_max":575,"ha":575,"o":"m 502 286 l 242 376 l 502 465 b 537 489 546 536 523 570 b 508 592 484 604 459 604 b 445 604 430 600 417 591 l 65 440 b 44 426 32 402 32 376 b 32 350 44 326 65 312 l 417 160 b 430 152 445 148 459 148 b 484 148 508 159 523 181 b 546 216 537 263 502 286 z"},"'":{"x_min":0,"x_max":216,"ha":216,"o":"m 168 747 b 157 760 142 767 125 767 l 91 767 b 75 767 60 761 49 749 b 38 737 33 721 34 705 l 42 619 b 45 590 69 568 99 568 l 112 568 b 140 568 164 588 168 616 l 181 702 b 184 718 179 735 168 747 z"},"=":{"x_min":0,"x_max":505,"ha":505,"o":"m 114 306 l 391 306 b 432 306 466 340 466 382 b 466 424 432 458 391 458 l 114 458 b 72 458 38 424 38 382 b 38 340 72 306 114 306 z m 391 276 l 114 276 b 72 276 38 242 38 200 b 38 159 72 125 114 125 l 391 125 b 432 125 466 159 466 200 b 466 242 432 276 391 276 z"},"a":{"x_min":0,"x_max":608,"ha":608,"o":"m 466 552 b 440 552 416 542 398 525 b 365 539 329 546 293 546 b 143 546 20 423 20 272 b 20 122 143 -1 293 -1 b 331 -1 368 7 403 22 b 420 7 443 -1 466 -1 b 522 -1 567 44 567 99 l 567 452 b 567 507 522 552 466 552 z m 293 200 b 253 200 221 232 221 272 b 221 312 253 345 293 345 b 308 345 366 332 366 272 b 366 232 333 200 293 200 z"},"L":{"x_min":0,"x_max":628,"ha":628,"o":"m 524 211 l 257 211 l 257 659 b 257 717 209 764 151 764 b 93 764 46 717 46 659 l 46 136 b 46 61 107 0 182 0 l 524 0 b 582 0 629 47 629 105 b 629 163 582 211 524 211 z"},"3":{"x_min":0,"x_max":646,"ha":646,"o":"m 601 513 b 601 662 481 767 309 767 b 176 767 116 713 70 662 b 45 634 36 594 48 558 b 59 523 86 498 122 490 b 158 482 195 494 220 522 b 241 545 271 556 309 556 b 323 556 391 554 391 513 b 391 495 384 482 295 478 b 245 476 205 435 205 385 b 205 334 245 293 296 291 b 384 288 391 276 391 257 b 391 215 323 213 309 213 b 271 213 241 225 221 247 b 199 270 170 283 141 282 b 100 280 65 256 49 219 b 34 182 41 140 67 110 b 114 58 175 3 309 3 b 481 3 601 107 601 257 b 601 315 570 355 540 380 b 572 406 601 448 601 513 z"},";":{"x_min":0,"x_max":282,"ha":282,"o":"m 141 342 b 197 342 242 387 242 443 b 242 499 197 544 141 544 b 85 544 40 499 40 443 b 40 387 85 342 141 342 z m 141 185 b 85 185 40 140 40 85 b 40 40 69 2 109 -11 b 108 -20 109 -29 113 -37 b 119 -52 133 -62 150 -64 b 167 -64 181 -60 192 -46 b 210 -22 242 27 242 85 b 242 140 197 185 141 185 z"},"J":{"x_min":0,"x_max":544,"ha":544,"o":"m 433 76 b 504 153 505 257 503 289 l 503 659 b 503 717 457 765 401 767 b 372 768 345 757 325 737 b 304 717 293 690 293 662 l 293 286 l 292 282 l 293 277 b 294 262 290 231 278 219 b 272 212 258 211 247 211 b 240 211 225 211 215 243 b 201 290 158 322 110 322 b 78 321 48 307 28 282 b 8 257 0 225 6 193 b 31 67 116 0 247 0 b 343 0 401 41 433 76 z"},"V":{"x_min":0,"x_max":673,"ha":673,"o":"m 563 767 b 521 767 482 742 466 701 l 338 384 l 207 702 b 190 742 150 767 109 767 b 66 767 29 741 12 702 b 1 676 1 647 12 621 l 242 65 b 259 26 297 0 340 0 l 341 0 b 383 0 421 26 437 66 l 661 622 b 672 648 671 677 660 703 b 643 742 606 767 563 767 z"},"\"":{"x_min":0,"x_max":403,"ha":403,"o":"m 354 747 b 344 760 328 767 311 767 l 277 767 b 261 767 246 761 235 749 b 224 737 219 721 221 705 l 229 619 b 231 590 256 568 285 568 l 298 568 b 326 568 350 588 354 616 l 367 702 b 370 718 365 735 354 747 z m 91 767 b 75 767 60 761 49 749 b 38 737 33 721 34 705 l 42 619 b 45 590 69 568 99 568 l 112 568 b 140 568 164 588 168 616 l 181 702 b 184 718 179 735 168 747 b 157 760 142 767 125 767 z"},"7":{"x_min":0,"x_max":671,"ha":671,"o":"m 549 767 l 150 767 b 92 767 45 720 45 662 b 45 603 92 556 150 556 l 357 556 b 310 465 218 271 218 157 l 218 108 b 218 50 266 3 324 3 b 382 3 429 50 429 108 l 429 155 b 429 301 612 569 628 592 b 645 611 654 636 654 662 b 654 720 607 767 549 767 z"},"S":{"x_min":0,"x_max":680,"ha":680,"o":"m 234 514 b 234 555 302 557 315 557 b 394 557 423 491 505 491 l 507 492 b 543 500 570 526 581 561 b 593 595 585 632 561 660 b 518 709 441 768 315 768 b 143 768 23 663 23 514 b 23 248 455 366 455 246 b 455 206 380 212 340 212 b 179 212 228 307 131 307 b 66 307 34 237 46 185 b 49 171 91 1 340 1 b 625 1 666 184 666 236 b 666 550 234 374 234 514 z"},"}":{"x_min":0,"x_max":455,"ha":455,"o":"m 422 281 l 421 285 b 421 286 421 286 421 287 l 420 291 b 420 292 420 292 420 293 l 419 296 b 410 328 380 350 346 350 l 343 350 b 337 351 332 356 332 362 l 332 574 b 332 670 253 748 157 748 l 107 748 b 86 748 65 739 51 723 b 36 707 29 686 31 665 b 35 626 69 596 109 596 b 115 596 121 591 121 584 l 122 372 b 122 337 132 303 152 274 b 132 245 122 211 122 176 l 121 4 b 121 -3 115 -8 109 -8 b 69 -8 35 -38 31 -77 b 29 -98 36 -119 51 -135 b 65 -151 86 -160 107 -160 l 157 -160 b 253 -160 332 -82 332 14 l 332 186 b 332 192 337 197 343 198 l 346 198 b 380 198 410 221 419 253 l 420 255 b 420 258 421 261 421 264 l 422 267 z"},"Z":{"x_min":0,"x_max":643,"ha":643,"o":"m 518 206 l 340 206 l 597 585 b 614 604 623 628 623 654 b 623 712 576 759 518 759 l 119 759 b 61 759 14 712 14 654 b 14 596 61 549 119 549 l 318 549 l 61 169 b 44 150 35 126 35 100 b 35 43 80 -4 137 -5 l 518 -5 b 576 -5 623 42 623 100 b 623 158 576 206 518 206 z"},"x":{"x_min":0,"x_max":540,"ha":540,"o":"m 400 272 l 491 381 b 526 424 520 487 477 523 b 459 538 436 546 414 546 b 385 546 356 533 336 509 l 270 429 l 203 509 b 183 533 155 546 126 546 b 103 546 81 538 62 523 b 20 487 14 424 49 381 l 139 272 l 49 163 b 14 121 20 57 62 22 b 80 7 103 -1 126 -1 b 156 -1 184 12 203 35 l 270 115 l 336 35 b 355 12 383 -1 413 -1 b 437 -1 459 7 477 22 b 520 57 526 121 491 163 z"},")":{"x_min":0,"x_max":454,"ha":454,"o":"m 274 673 b 204 736 134 747 131 748 l 126 748 b 84 748 50 714 50 672 b 50 630 84 613 105 603 l 115 598 b 123 594 200 546 200 294 b 200 49 122 -5 113 -11 l 110 -12 b 88 -24 50 -43 50 -84 b 50 -126 84 -160 126 -160 l 130 -160 b 133 -159 204 -150 274 -88 b 336 -32 411 80 411 294 b 411 505 337 617 274 673 z"},"&":{"x_min":0,"x_max":773,"ha":773,"o":"m 698 417 b 675 434 645 441 617 435 b 577 427 559 406 539 372 b 537 374 535 376 533 378 b 557 409 585 459 585 528 b 585 659 484 744 323 749 l 321 749 b 156 744 57 630 57 522 b 57 445 92 393 120 364 b 88 332 42 274 42 204 b 42 126 78 -7 321 -15 l 322 -15 b 381 -15 440 2 496 36 b 515 4 549 -16 587 -16 b 621 -16 654 0 673 28 b 693 56 699 90 687 123 b 680 145 671 167 662 189 b 685 218 706 249 725 282 b 752 328 740 386 698 417 z m 322 538 b 356 538 392 522 392 495 b 392 483 392 468 322 462 b 253 468 253 483 253 495 b 253 538 319 538 322 538 z m 322 196 b 289 196 253 205 253 226 b 253 257 276 273 322 273 b 357 273 387 258 413 228 b 382 207 351 196 322 196 z"},"_":{"x_min":0,"x_max":423,"ha":423,"o":"m 350 22 l 73 22 b 31 22 -3 -12 -3 -54 b -3 -96 31 -130 73 -130 l 350 -130 b 391 -130 425 -96 425 -54 b 425 -12 391 22 350 22 z"},"v":{"x_min":0,"x_max":560,"ha":560,"o":"m 489 530 b 474 537 458 541 443 541 b 404 541 367 519 348 482 l 280 342 l 209 483 b 191 520 154 541 115 541 b 99 541 83 538 68 530 b 16 504 -5 440 21 388 l 187 57 b 205 21 241 -1 282 -1 b 322 -1 358 22 376 58 l 538 389 b 563 442 541 505 489 530 z"},"O":{"x_min":0,"x_max":798,"ha":798,"o":"m 399 768 b 146 760 20 573 19 386 b 18 197 145 9 399 1 b 652 7 778 195 778 384 b 778 573 652 762 399 768 z m 572 384 b 570 271 485 214 399 214 b 314 214 228 271 226 384 b 227 497 313 554 399 554 b 485 554 572 497 572 384 z"},"(":{"x_min":0,"x_max":454,"ha":454,"o":"m 343 -12 l 341 -11 b 334 -7 254 46 254 294 b 254 544 330 593 339 598 l 349 603 b 369 613 404 630 404 672 b 404 714 370 748 328 748 l 323 748 b 320 747 249 736 180 673 b 117 617 43 505 43 294 b 43 80 117 -32 180 -88 b 250 -150 321 -159 324 -160 l 328 -160 b 370 -160 404 -126 404 -84 b 404 -43 366 -24 343 -12 z"},"C":{"x_min":0,"x_max":706,"ha":706,"o":"m 661 122 b 699 166 695 232 651 271 b 630 289 603 299 575 297 b 547 295 521 282 502 261 b 467 221 448 212 401 212 b 306 212 229 289 229 384 b 229 480 306 557 401 557 b 430 557 452 554 498 517 b 517 501 541 493 565 493 b 595 493 626 506 647 532 b 683 578 676 644 631 681 b 556 742 487 768 401 768 b 189 768 18 596 18 384 b 18 172 189 1 401 1 b 515 1 586 39 661 122 z"},"W":{"x_min":0,"x_max":1026,"ha":1026,"o":"m 915 767 b 874 767 835 742 818 701 l 699 405 l 597 698 b 588 722 570 767 498 767 b 450 767 410 737 397 690 l 321 425 l 207 702 b 190 742 150 767 109 767 b 66 767 29 741 12 702 b 1 676 1 647 12 621 l 242 65 b 261 22 300 0 346 0 b 390 3 429 33 441 76 l 508 313 l 593 71 b 607 29 646 1 690 0 l 692 0 b 735 0 774 26 790 66 l 1014 622 b 1024 648 1024 677 1013 703 b 997 742 957 767 915 767 z"},"A":{"x_min":0,"x_max":674,"ha":674,"o":"m 467 65 b 484 24 523 0 564 0 b 578 0 592 3 605 8 b 658 30 684 92 662 146 l 431 702 b 415 741 377 767 334 767 b 291 767 252 741 236 701 l 13 145 b -9 91 17 29 71 8 b 84 3 97 0 110 0 b 154 0 192 26 208 66 l 230 120 l 444 120 z m 301 331 l 336 443 l 370 331 z"},"f":{"x_min":0,"x_max":438,"ha":438,"o":"m 354 510 l 311 510 b 312 513 312 515 313 516 b 316 518 328 521 349 521 b 404 521 449 566 449 621 b 449 677 404 722 349 722 b 209 722 120 649 109 510 l 84 510 b 42 510 8 476 8 434 b 8 392 42 358 84 358 l 107 358 l 107 99 b 107 44 152 -1 207 -1 b 263 -1 308 44 308 99 l 308 358 l 354 358 b 396 358 430 392 430 434 b 430 476 396 510 354 510 z"},"Q":{"x_min":0,"x_max":800,"ha":800,"o":"m 683 124 b 747 196 778 290 778 384 b 778 573 652 762 399 768 b 146 760 20 573 19 386 b 18 197 145 9 399 1 b 437 2 473 7 505 16 l 525 -20 b 546 -47 577 -61 609 -61 b 631 -61 653 -54 672 -40 b 719 -5 728 62 693 108 z m 226 384 b 227 497 313 554 399 554 b 485 554 572 497 572 384 b 572 368 569 352 566 338 l 557 353 b 536 381 505 395 473 395 b 451 395 429 388 410 374 b 363 338 354 272 389 226 l 396 214 b 312 216 228 272 226 384 z"},"w":{"x_min":0,"x_max":821,"ha":821,"o":"m 750 530 b 735 537 720 540 705 540 b 666 540 628 518 609 481 l 549 358 l 499 476 b 483 515 442 542 400 540 b 357 540 317 511 303 471 l 266 369 l 210 482 b 192 519 154 540 115 540 b 70 540 29 511 15 468 b 7 441 9 413 21 388 l 187 57 b 205 19 244 -3 288 -1 b 331 2 368 29 381 69 l 380 69 b 383 75 410 147 410 147 l 445 63 b 461 23 500 -1 543 -1 b 584 -1 621 22 637 58 l 799 389 b 824 441 802 504 750 530 z"},"-":{"x_min":0,"x_max":487,"ha":487,"o":"m 378 330 l 108 330 b 66 330 32 296 32 255 b 32 213 66 179 108 179 l 378 179 b 420 179 454 213 454 255 b 454 296 420 330 378 330 z"},"E":{"x_min":0,"x_max":650,"ha":650,"o":"m 524 554 b 582 554 629 601 629 659 b 629 717 582 764 524 764 l 182 764 b 107 764 46 704 46 629 l 46 105 b 46 47 93 0 151 0 l 524 0 b 582 0 629 47 629 105 b 629 163 582 211 524 211 l 257 211 l 257 277 l 438 277 b 496 277 544 324 544 382 b 544 440 496 487 438 487 l 257 487 l 257 554 z"},"s":{"x_min":0,"x_max":555,"ha":555,"o":"m 193 369 b 193 400 247 402 258 402 b 321 402 344 352 409 352 l 411 353 b 439 359 461 378 470 404 b 479 430 473 458 454 479 b 420 515 358 559 258 559 b 121 559 25 481 25 369 b 25 170 370 258 370 169 b 370 139 310 143 278 143 b 149 143 188 214 111 214 b 59 214 34 162 43 123 b 46 113 79 -14 278 -14 b 505 -14 537 122 537 161 b 537 396 193 265 193 369 z"},">":{"x_min":0,"x_max":575,"ha":575,"o":"m 509 440 l 157 591 b 144 600 130 604 115 604 b 91 604 66 592 52 570 b 29 536 38 489 72 465 l 333 376 l 72 286 b 38 263 29 216 52 181 b 67 159 91 148 115 148 b 130 148 144 152 157 160 l 509 312 b 530 326 543 350 542 376 b 543 402 530 426 509 440 z"},"l":{"x_min":0,"x_max":287,"ha":287,"o":"m 143 762 b 88 762 43 717 43 661 l 43 99 b 43 44 88 -1 143 -1 b 199 -1 244 44 244 99 l 244 661 b 244 717 199 762 143 762 z"},"8":{"x_min":0,"x_max":648,"ha":648,"o":"m 530 385 b 559 416 596 470 594 546 b 591 695 452 764 324 766 b 187 766 44 692 44 540 b 44 460 87 408 120 380 b 88 347 44 290 44 222 b 44 71 190 2 323 2 b 459 2 604 75 604 227 b 604 306 563 357 530 385 z m 324 477 b 295 477 255 488 255 513 b 255 547 297 558 324 558 b 351 558 394 547 394 513 b 394 488 353 477 324 477 z m 394 252 b 394 244 391 238 385 233 b 372 220 346 213 319 214 b 297 215 255 224 255 252 b 255 281 296 291 324 291 b 352 291 394 281 394 252 z"},"\\":{"x_min":0,"x_max":445,"ha":445,"o":"m 419 84 l 170 699 b 158 729 128 748 98 748 b 89 748 80 746 71 743 b 32 728 13 684 28 644 l 278 29 b 289 -1 318 -19 349 -19 b 358 -19 367 -18 376 -14 b 395 -7 410 7 418 26 b 426 44 427 65 419 84 z"},"e":{"x_min":0,"x_max":540,"ha":540,"o":"m 519 316 b 519 508 360 546 294 546 b 219 546 21 479 21 261 b 21 138 103 -1 294 -1 b 458 -1 475 97 475 132 b 475 223 369 200 294 200 b 255 200 250 221 250 221 l 378 221 b 481 221 519 272 519 316 z m 235 321 b 235 321 234 380 298 380 b 359 380 361 321 361 321 z"},"b":{"x_min":0,"x_max":611,"ha":611,"o":"m 316 546 b 291 546 267 542 244 536 l 244 661 b 244 717 199 762 143 762 b 88 762 43 717 43 661 l 43 99 b 43 44 88 -1 143 -1 b 167 -1 189 7 207 22 b 241 7 279 -1 316 -1 b 467 -1 590 122 590 272 b 590 398 518 546 316 546 z m 316 200 b 276 200 244 232 244 272 b 244 312 276 345 316 345 b 368 345 389 298 389 272 b 389 232 356 200 316 200 z"},"%":{"x_min":0,"x_max":1176,"ha":1176,"o":"m 738 763 b 729 766 719 768 710 768 b 679 768 651 749 640 720 l 390 105 l 390 104 b 383 85 383 65 391 46 b 404 18 431 1 461 1 b 471 1 482 3 491 8 b 510 16 524 31 531 49 l 781 665 b 796 704 777 748 738 763 z m 504 532 b 504 662 400 768 269 768 b 138 768 33 663 33 532 b 33 402 139 297 269 297 b 399 297 504 402 504 532 z m 269 447 b 221 447 183 485 183 532 b 183 580 221 618 269 618 b 336 618 354 550 354 532 b 354 485 316 447 269 447 z m 907 479 b 777 479 671 374 671 243 b 671 113 777 8 907 8 b 1037 8 1143 113 1143 243 b 1143 372 1037 479 907 479 z m 907 158 b 860 158 821 196 821 243 b 821 291 860 329 907 329 b 954 329 993 290 993 243 b 993 196 954 158 907 158 z"},"m":{"x_min":0,"x_max":925,"ha":925,"o":"m 895 236 b 894 379 827 546 641 546 b 579 546 519 525 471 487 b 428 525 373 546 314 546 b 277 546 239 538 205 523 b 187 537 165 546 141 546 b 86 546 41 501 41 445 l 41 99 b 41 44 86 -1 141 -1 b 197 -1 242 44 242 99 l 242 272 b 242 312 274 345 314 345 b 354 345 368 287 368 233 l 368 99 b 368 44 413 -1 468 -1 b 523 -1 568 44 568 99 l 568 272 b 568 312 601 345 641 345 b 680 345 694 287 694 233 l 694 99 b 694 44 739 -1 795 -1 b 850 -1 895 44 895 99 b 895 236 895 236 895 236 z"},"#":{"x_min":0,"x_max":653,"ha":653,"o":"m 538 289 l 497 289 l 497 444 l 538 444 b 579 444 613 478 613 520 b 613 562 579 596 538 596 l 497 596 l 497 673 b 497 715 463 749 422 749 b 380 749 346 715 346 673 l 346 596 l 307 596 l 307 675 b 307 717 273 751 231 751 b 189 751 155 717 155 675 l 155 596 l 115 596 b 73 596 39 562 39 520 b 39 478 73 444 115 444 l 155 444 l 155 289 l 115 289 b 73 289 39 255 39 213 b 39 171 73 137 115 137 l 155 137 l 155 59 b 155 18 189 -16 231 -16 b 273 -16 307 18 307 59 l 307 137 l 346 137 l 346 58 b 346 16 380 -18 422 -18 b 463 -18 497 16 497 58 l 497 137 l 538 137 b 579 137 613 171 613 213 b 613 255 579 289 538 289 z m 346 289 l 307 289 l 307 444 l 346 444 z"},",":{"x_min":0,"x_max":268,"ha":268,"o":"m 134 185 b 78 185 33 140 33 85 b 33 40 62 2 102 -11 b 101 -20 102 -29 106 -37 b 112 -52 126 -62 143 -64 b 160 -64 174 -60 185 -46 b 203 -22 235 27 235 85 b 235 140 190 185 134 185 z"},"n":{"x_min":0,"x_max":600,"ha":600,"o":"m 496 474 b 452 521 391 546 314 546 b 277 546 239 538 205 523 b 187 537 165 546 141 546 b 86 546 41 501 41 445 l 41 99 b 41 44 86 -1 141 -1 b 197 -1 242 44 242 99 l 242 272 b 242 312 274 345 314 345 b 354 345 368 287 368 233 l 368 99 b 368 44 413 -1 468 -1 b 523 -1 568 44 568 99 l 568 234 b 570 254 576 387 496 474 z"},"h":{"x_min":0,"x_max":601,"ha":601,"o":"m 570 236 b 569 351 515 546 316 546 b 291 546 267 542 244 536 l 244 661 b 244 717 199 762 143 762 b 88 762 43 717 43 661 l 43 99 b 43 44 88 -1 143 -1 b 199 -1 244 44 244 99 l 244 272 b 244 312 276 345 316 345 b 356 345 370 287 370 233 l 370 99 b 370 44 415 -1 470 -1 b 525 -1 570 44 570 99 z"},"z":{"x_min":0,"x_max":561,"ha":561,"o":"m 354 200 b 354 200 458 328 507 384 b 529 410 538 433 538 460 b 538 520 498 546 427 546 l 121 546 b -12 540 -12 351 121 345 l 214 345 l 63 163 b 60 159 40 134 40 90 b 40 8 136 -1 140 -1 l 427 -1 b 560 4 560 194 427 200 z"},"B":{"x_min":0,"x_max":696,"ha":696,"o":"m 678 263 b 678 336 647 406 594 456 b 605 482 610 511 610 540 b 610 664 510 764 386 764 l 182 764 b 107 764 46 704 46 629 l 46 105 b 46 47 93 0 151 0 l 415 0 b 560 0 678 118 678 263 z m 257 554 l 380 554 b 400 554 404 535 404 527 b 404 520 397 501 380 501 l 257 501 z m 415 211 l 257 211 l 257 315 l 415 315 b 444 315 467 292 467 263 b 467 234 444 211 415 211 z"},"K":{"x_min":0,"x_max":612,"ha":612,"o":"m 591 92 b 595 120 587 148 570 170 l 392 399 l 565 588 b 604 631 601 698 558 737 b 538 755 512 764 487 764 b 458 764 430 753 409 730 l 258 564 l 258 659 b 258 717 210 764 152 764 b 94 764 47 717 47 659 l 47 105 b 47 47 94 0 152 0 b 210 0 258 47 258 105 l 258 228 l 404 41 b 424 15 454 0 487 0 b 540 0 585 39 591 92 z"},"R":{"x_min":0,"x_max":683,"ha":683,"o":"m 258 105 l 258 241 l 288 241 l 442 41 b 462 15 493 0 525 0 b 549 0 571 8 590 22 b 636 58 644 124 608 170 l 528 276 b 608 322 660 409 660 504 b 660 649 542 767 397 767 l 152 767 b 94 767 47 720 47 662 l 47 105 b 47 47 94 0 152 0 b 210 0 258 47 258 105 z m 397 556 b 426 556 449 533 449 504 b 449 475 426 451 397 451 l 258 451 l 258 556 z"},"T":{"x_min":0,"x_max":646,"ha":646,"o":"m 428 554 l 541 554 b 599 554 647 601 647 659 b 647 717 599 764 541 764 l 104 764 b 46 764 -1 717 -1 659 b -1 601 46 554 104 554 l 218 554 l 218 105 b 218 47 265 0 323 0 b 381 0 428 47 428 105 z"},"P":{"x_min":0,"x_max":671,"ha":671,"o":"m 397 767 l 152 767 b 94 767 47 720 47 662 l 47 105 b 47 47 94 0 152 0 b 210 0 258 47 258 105 l 258 241 l 397 241 b 542 241 660 359 660 504 b 660 649 542 767 397 767 z m 449 504 b 449 475 426 451 397 451 l 258 451 l 258 556 l 397 556 b 426 556 449 533 449 504 z"},"|":{"x_min":0,"x_max":250,"ha":250,"o":"m 125 748 b 83 748 49 714 49 672 l 49 -50 b 49 -91 83 -125 125 -125 b 167 -125 201 -91 201 -50 l 201 672 b 201 714 167 748 125 748 z"},"t":{"x_min":0,"x_max":467,"ha":467,"o":"m 347 200 b 325 200 314 203 311 205 b 309 209 306 221 306 255 l 306 394 l 352 394 b 394 394 428 428 428 470 b 428 512 394 546 352 546 l 306 546 l 306 621 b 306 677 261 722 205 722 b 150 722 105 677 105 621 l 105 546 l 82 546 b 40 546 6 512 6 470 b 6 428 40 394 82 394 l 105 394 l 105 255 b 105 97 179 -1 347 -1 b 402 -1 447 44 447 99 b 447 155 402 200 347 200 z"},"M":{"x_min":0,"x_max":838,"ha":838,"o":"m 686 764 b 632 764 599 725 590 704 l 419 348 l 247 704 b 233 733 200 764 149 764 b 106 764 46 724 46 658 l 46 104 b 49 36 101 1 151 0 b 202 0 254 36 257 104 l 257 247 b 303 121 323 64 326 58 b 345 19 382 0 424 0 b 462 2 497 25 514 58 b 519 68 542 127 580 248 l 580 104 b 582 36 635 1 685 0 b 735 0 788 36 790 104 l 790 658 b 790 725 738 764 686 764 z"},"g":{"x_min":0,"x_max":610,"ha":610,"o":"m 567 36 l 567 443 b 567 498 524 543 470 546 b 446 547 422 538 403 523 b 368 538 331 546 293 546 b 151 546 31 435 21 292 b 15 216 41 142 93 86 b 145 31 218 -1 293 -1 b 317 -1 340 2 363 8 b 355 -33 336 -51 293 -51 b 279 -51 267 -46 256 -38 b 238 -25 218 -18 197 -18 b 150 -18 109 -51 102 -98 b 97 -131 109 -163 133 -185 b 180 -226 240 -251 293 -251 b 460 -251 567 -128 567 36 z m 293 200 b 253 200 221 232 221 272 b 221 312 253 345 293 345 b 334 345 366 313 366 272 b 366 232 333 200 293 200 z"},"j":{"x_min":0,"x_max":288,"ha":288,"o":"m 138 572 b 193 572 239 617 239 673 b 239 728 193 774 138 774 b 82 774 37 728 37 673 b 37 617 82 572 138 572 z m 245 451 b 245 506 200 551 144 551 b 89 551 44 506 44 451 l 44 33 b 44 18 38 -18 21 -35 b 11 -46 -5 -51 -29 -51 b -84 -51 -129 -96 -129 -151 b -129 -206 -84 -251 -29 -251 b 137 -251 245 -128 245 36 z"},"i":{"x_min":0,"x_max":283,"ha":283,"o":"m 146 572 b 202 572 247 617 247 673 b 247 728 202 774 146 774 b 90 774 45 728 45 673 b 45 617 90 572 146 572 z m 141 551 b 86 551 41 506 41 451 l 41 99 b 41 44 86 -1 141 -1 b 197 -1 242 44 242 99 l 242 451 b 242 506 197 551 141 551 z"},"y":{"x_min":0,"x_max":601,"ha":601,"o":"m 152 -13 b 117 -20 88 -46 77 -80 b 67 -114 76 -152 101 -177 b 148 -226 211 -251 284 -251 b 362 -251 429 -225 478 -175 b 556 -95 558 15 557 36 l 557 443 b 557 498 514 544 460 546 b 403 546 357 503 357 445 l 357 272 b 356 232 324 200 284 200 b 245 200 231 258 231 312 l 231 443 b 231 498 187 544 133 546 b 76 546 30 502 30 445 l 30 308 b 31 214 55 139 103 83 b 149 29 213 -1 284 -1 b 308 -1 331 2 354 8 b 350 -7 344 -25 333 -35 b 323 -46 307 -51 284 -51 b 264 -51 249 -46 240 -38 b 217 -16 185 -7 154 -13 z"},"@":{"x_min":0,"x_max":952,"ha":952,"o":"m 504 812 b 214 812 40 576 40 347 b 40 108 235 -88 475 -88 b 529 -88 561 -48 561 -9 b 561 39 519 65 475 65 b 320 65 193 192 193 347 b 193 498 302 659 504 659 b 739 659 757 420 757 347 b 757 239 724 201 715 201 b 711 202 698 219 698 261 l 686 497 b 686 551 653 589 607 589 b 585 589 564 580 547 566 b 519 577 489 583 459 583 b 328 583 221 476 221 345 b 221 213 328 106 459 106 b 490 106 521 112 549 124 b 581 83 619 53 696 53 b 830 53 910 163 910 347 b 910 600 778 812 504 812 z m 516 336 b 512 308 488 287 459 287 b 428 287 402 313 402 345 b 402 376 428 402 459 402 b 492 402 514 377 517 346 b 516 343 516 340 516 336 z"},".":{"x_min":0,"x_max":268,"ha":268,"o":"m 134 185 b 78 185 33 140 33 85 b 33 29 78 -16 134 -16 b 190 -16 235 29 235 85 b 235 140 190 185 134 185 z"},"p":{"x_min":0,"x_max":611,"ha":611,"o":"m 316 545 b 279 545 241 537 207 522 b 189 536 167 545 143 545 b 88 545 43 500 43 444 l 43 -118 b 43 -173 88 -218 143 -218 b 199 -218 244 -173 244 -118 l 244 9 b 274 2 306 -2 331 -2 b 431 -2 590 72 590 271 b 590 422 467 545 316 545 z m 324 199 b 278 199 244 230 244 271 b 244 311 276 344 316 344 b 356 344 389 311 389 271 b 389 218 349 199 324 199 z"},"X":{"x_min":0,"x_max":686,"ha":686,"o":"m 626 742 b 607 757 584 765 561 765 b 530 765 499 751 478 724 l 343 553 l 208 724 b 191 746 166 760 138 764 b 110 767 82 759 60 742 b 38 724 24 699 21 672 b 17 644 25 616 43 594 l 209 382 l 43 170 b 7 125 15 58 60 23 b 79 8 102 0 125 0 b 158 0 188 15 208 40 l 343 212 l 478 40 b 498 15 528 0 561 0 b 584 0 607 8 626 23 b 671 58 679 125 643 170 l 477 382 l 643 594 b 679 640 671 706 626 742 z"},"*":{"x_min":0,"x_max":313,"ha":313,"o":"m 279 626 b 279 643 271 658 259 668 b 259 685 256 699 243 712 b 231 724 214 729 199 728 b 189 740 173 748 156 748 b 139 748 124 740 114 728 b 98 729 81 724 70 712 b 57 700 54 685 54 668 b 42 658 34 643 34 626 b 34 609 42 593 54 583 b 53 568 58 551 70 539 b 81 527 98 522 114 523 b 124 511 139 503 156 503 b 173 503 189 511 199 523 b 214 522 231 527 243 539 b 255 551 260 567 258 583 b 271 593 279 609 279 626 z"},"Y":{"x_min":0,"x_max":646,"ha":646,"o":"m 541 763 b 510 763 479 749 458 722 l 322 550 l 188 722 b 171 744 146 758 118 762 b 90 765 63 758 41 740 b 18 723 4 698 1 670 b -3 642 5 615 22 593 l 217 343 l 217 104 b 217 46 264 -2 322 -2 b 380 -2 427 46 427 104 l 427 343 l 623 592 b 641 614 648 642 645 670 b 639 723 594 763 541 763 z"},"c":{"x_min":0,"x_max":495,"ha":495,"o":"m 426 196 l 423 198 b 406 211 386 217 365 217 b 349 217 334 213 319 206 b 312 202 303 200 294 200 b 245 200 222 225 222 280 b 222 322 239 347 269 347 b 282 347 303 335 315 325 b 330 312 349 306 370 306 b 396 306 423 316 442 335 b 462 356 472 381 470 407 b 469 434 453 461 428 482 b 393 510 347 539 266 539 b 119 539 21 407 21 283 b 21 124 136 -1 283 -1 b 353 -1 463 33 463 119 b 463 149 450 177 426 196 z"},"!":{"x_min":0,"x_max":309,"ha":309,"o":"m 154 804 b 96 804 49 756 49 698 l 49 145 b 49 87 96 39 154 39 b 212 39 260 87 260 145 l 260 698 b 260 756 212 804 154 804 z m 154 -177 b 210 -177 255 -132 255 -76 b 255 -20 210 25 154 25 b 99 25 53 -20 53 -76 b 53 -132 99 -177 154 -177 z"},"/":{"x_min":0,"x_max":445,"ha":445,"o":"m 373 743 b 364 746 355 748 346 748 b 316 748 287 729 275 700 l 25 84 b 18 65 18 44 27 26 b 35 7 50 -7 69 -14 b 77 -18 87 -19 96 -19 b 128 -19 155 -1 166 29 l 416 645 b 431 684 412 728 373 743 z"},"[":{"x_min":0,"x_max":382,"ha":382,"o":"m 274 -8 l 260 -8 l 260 596 l 274 596 b 316 596 350 630 350 672 b 350 714 316 748 274 748 l 154 748 b 96 748 49 701 49 643 l 49 -55 b 49 -113 96 -160 154 -160 l 274 -160 b 316 -160 350 -126 350 -84 b 350 -42 316 -8 274 -8 z"},"6":{"x_min":0,"x_max":669,"ha":669,"o":"m 366 523 b 338 523 312 519 285 513 b 285 538 305 569 340 569 b 387 569 387 529 470 529 b 487 529 580 542 580 624 b 580 641 566 767 366 767 b 264 767 41 683 41 377 b 41 191 143 3 337 3 b 508 3 628 107 628 257 b 628 453 487 523 366 523 z m 418 269 b 418 250 397 213 337 213 b 294 213 273 257 262 288 b 286 307 320 325 364 326 b 404 326 418 291 418 269 z"},"r":{"x_min":0,"x_max":529,"ha":529,"o":"m 496 462 b 449 516 385 546 314 546 b 277 546 239 538 205 523 b 187 537 165 546 141 546 b 86 546 41 501 41 445 l 41 99 b 41 44 86 -1 141 -1 b 197 -1 242 44 242 99 l 242 272 b 242 312 274 345 314 345 b 326 345 335 341 343 332 b 360 311 385 299 411 297 b 438 295 464 303 484 320 b 505 338 517 362 519 389 b 521 416 513 442 496 462 z"},"2":{"x_min":0,"x_max":666,"ha":666,"o":"m 623 513 b 623 662 503 767 331 767 b 197 767 136 711 89 659 b 64 632 56 595 67 560 b 78 525 106 499 142 490 b 178 482 216 494 242 522 b 262 545 298 561 337 561 b 350 561 398 554 398 513 b 398 385 40 385 40 138 b 40 63 101 3 176 3 l 518 3 b 576 3 623 50 623 108 b 623 166 576 213 518 213 l 307 213 b 307 282 623 313 623 513 z"},"{":{"x_min":0,"x_max":455,"ha":455,"o":"m 345 -8 b 339 -8 333 -3 333 4 l 332 176 b 332 211 322 245 302 274 b 322 303 332 337 332 372 l 333 584 b 333 591 339 596 345 596 b 385 596 419 626 423 665 b 425 686 418 707 403 723 b 389 739 369 748 347 748 l 297 748 b 201 748 122 670 122 574 l 122 362 b 122 356 117 351 112 350 l 108 350 b 74 350 45 328 35 296 b 35 295 35 294 34 293 b 34 290 33 287 33 285 l 32 281 l 32 267 l 33 264 b 33 261 34 258 34 256 l 35 253 b 45 221 74 198 108 198 l 112 198 b 117 197 122 192 122 186 l 122 14 b 122 -82 201 -160 297 -160 l 347 -160 b 369 -160 389 -151 403 -135 b 418 -119 425 -98 423 -77 b 419 -38 385 -8 345 -8 z"},"9":{"x_min":0,"x_max":669,"ha":669,"o":"m 302 247 b 330 247 357 250 383 257 b 383 231 364 200 328 200 b 281 200 281 240 198 240 b 181 240 89 228 89 145 b 89 128 102 3 302 3 b 404 3 627 87 627 392 b 627 578 526 767 331 767 b 160 767 40 662 40 513 b 40 316 181 247 302 247 z m 251 500 b 251 519 271 556 332 556 b 374 556 396 512 406 481 b 382 462 348 444 304 444 b 265 444 251 478 251 500 z"}," ":{"x_min":0,"x_max":270,"ha":270,"o":""},"I":{"x_min":0,"x_max":305,"ha":305,"o":"m 152 0 b 210 0 258 47 258 105 l 258 659 b 258 717 210 764 152 764 b 94 764 47 717 47 659 l 47 105 b 47 47 94 0 152 0 z"},"H":{"x_min":0,"x_max":697,"ha":697,"o":"m 650 659 b 650 717 602 764 544 764 b 486 764 439 717 439 659 l 439 487 l 258 487 l 258 659 b 258 717 210 764 152 764 b 94 764 47 717 47 659 l 47 105 b 47 47 94 0 152 0 b 210 0 258 47 258 105 l 258 277 l 439 277 l 439 105 b 439 47 486 0 544 0 b 602 0 650 47 650 105 z"},"4":{"x_min":0,"x_max":763,"ha":763,"o":"m 632 662 b 632 724 582 767 522 767 b 492 768 463 757 441 735 l 56 368 b 35 348 24 320 25 291 b 25 258 46 182 130 182 l 422 182 l 422 108 b 422 50 469 3 527 3 b 585 3 632 50 632 108 l 632 182 b 687 186 731 231 731 287 b 731 343 687 389 632 392 z m 422 472 l 422 393 l 335 393 z"},"D":{"x_min":0,"x_max":667,"ha":667,"o":"m 646 382 b 646 588 523 764 305 764 l 169 764 b 102 764 47 709 47 642 l 47 81 b 47 36 83 0 128 0 l 270 0 b 325 0 429 19 502 74 b 568 123 646 216 646 382 z m 435 382 b 435 318 416 272 376 243 b 341 217 281 211 270 211 l 258 211 l 258 554 l 305 554 b 344 554 435 537 435 382 z"},"^":{"x_min":0,"x_max":432,"ha":432,"o":"m 371 481 b 399 500 406 538 388 565 l 267 846 b 256 863 237 873 216 873 b 195 873 176 863 165 846 l 44 565 b 37 555 34 543 34 532 b 34 498 60 471 94 471 b 114 471 133 480 145 498 l 216 705 l 287 498 b 299 480 318 471 338 471 b 349 471 361 474 371 481 z"},"0":{"x_min":0,"x_max":845,"ha":845,"o":"m 422 767 b 210 767 39 595 39 383 b 39 171 210 0 422 0 b 634 0 806 171 806 383 b 806 594 635 767 422 767 z m 595 383 b 595 288 518 211 422 211 b 327 211 250 288 250 383 b 250 479 327 556 422 556 b 519 556 595 479 595 383 z"},"F":{"x_min":0,"x_max":632,"ha":632,"o":"m 257 105 l 257 277 l 438 277 b 496 277 544 324 544 382 b 544 440 496 487 438 487 l 257 487 l 257 554 l 524 554 b 582 554 629 601 629 659 b 629 717 582 764 524 764 l 182 764 b 107 764 46 703 46 629 l 46 105 b 46 47 93 0 151 0 b 209 0 257 47 257 105 z"},"k":{"x_min":0,"x_max":597,"ha":597,"o":"m 531 179 l 404 278 l 527 362 b 572 394 584 456 553 502 b 533 530 501 545 469 545 b 450 545 430 540 413 528 l 244 411 l 244 661 b 244 717 199 762 143 762 b 88 762 43 717 43 661 l 43 99 b 43 44 88 -1 143 -1 b 199 -1 244 44 244 99 l 244 148 l 408 20 b 426 6 447 -1 470 -1 b 501 -1 530 13 549 38 b 583 82 575 145 531 179 z"},"u":{"x_min":0,"x_max":600,"ha":600,"o":"m 458 546 b 403 546 358 501 358 445 l 358 272 b 358 232 325 200 285 200 b 246 200 232 258 232 312 l 232 445 b 232 501 187 546 131 546 b 76 546 31 501 31 445 l 31 309 b 31 53 169 -1 285 -1 b 323 -1 360 7 394 22 b 412 7 434 -1 458 -1 b 513 -1 558 44 558 99 l 558 445 b 558 501 513 546 458 546 z"},"]":{"x_min":0,"x_max":382,"ha":382,"o":"m 227 748 l 108 748 b 66 748 32 714 32 672 b 32 630 66 596 108 596 l 122 596 l 122 -8 l 108 -8 b 66 -8 32 -42 32 -84 b 32 -126 66 -160 108 -160 l 227 -160 b 285 -160 333 -113 333 -55 l 333 643 b 333 701 285 748 227 748 z"},"U":{"x_min":0,"x_max":625,"ha":625,"o":"m 584 659 b 584 717 537 764 479 764 b 421 764 374 717 374 659 l 374 273 b 374 229 356 211 312 211 b 279 211 250 240 250 273 l 250 659 b 250 717 202 764 144 764 b 86 764 39 717 39 659 l 39 273 b 39 124 163 0 312 0 b 474 0 584 112 584 273 z"},"o":{"x_min":0,"x_max":587,"ha":587,"o":"m 293 545 b 143 545 20 422 20 271 b 20 121 143 -2 293 -2 b 444 -2 567 121 567 271 b 567 377 492 545 293 545 z m 293 199 b 253 199 221 231 221 271 b 221 311 253 344 293 344 b 344 344 366 322 366 271 b 366 231 333 199 293 199 z"},"N":{"x_min":0,"x_max":687,"ha":687,"o":"m 535 764 b 484 764 432 728 429 660 l 429 402 l 243 713 b 228 738 196 764 149 764 b 100 764 47 724 47 659 l 47 105 b 47 47 94 0 152 0 b 210 0 258 47 258 105 l 258 334 l 444 52 b 456 28 488 0 542 0 b 582 0 640 33 640 106 l 640 660 b 637 728 585 764 535 764 z"},"+":{"x_min":0,"x_max":493,"ha":493,"o":"m 385 276 l 322 276 l 322 340 b 322 382 288 416 246 416 b 204 416 170 382 170 340 l 170 276 l 108 276 b 66 276 32 242 32 200 b 32 159 66 125 108 125 l 170 125 l 170 63 b 170 21 204 -13 246 -13 b 288 -13 322 21 322 63 l 322 125 l 385 125 b 426 125 460 159 460 200 b 460 242 426 276 385 276 z"},"G":{"x_min":0,"x_max":719,"ha":719,"o":"m 661 122 b 679 143 689 172 687 200 l 687 384 b 687 442 640 490 582 490 l 405 490 b 347 490 300 442 300 384 b 300 326 347 279 405 279 l 476 279 l 476 235 b 455 217 436 212 401 212 b 306 212 229 289 229 384 b 229 480 306 557 401 557 b 430 557 452 554 498 517 b 518 501 542 493 565 493 b 596 493 626 506 647 532 b 664 554 672 582 669 610 b 667 638 653 663 631 681 b 556 742 487 768 401 768 b 189 768 18 596 18 384 b 18 172 189 1 401 1 b 513 1 588 39 661 122 z"},"q":{"x_min":0,"x_max":611,"ha":611,"o":"m 467 546 b 444 546 421 537 404 523 b 369 538 332 546 294 546 b 144 546 21 423 21 272 b 21 73 180 -1 280 -1 b 305 -1 337 2 367 10 l 367 -117 b 367 -172 412 -217 467 -217 b 523 -217 568 -172 568 -117 l 568 445 b 568 501 523 546 467 546 z m 287 199 b 261 199 222 219 222 272 b 222 312 254 345 294 345 b 334 345 367 312 367 272 b 367 231 332 199 287 199 z"},"d":{"x_min":0,"x_max":610,"ha":610,"o":"m 466 762 b 411 762 366 717 366 661 l 366 536 b 343 542 318 546 293 546 b 180 546 20 461 20 272 b 20 122 143 -1 293 -1 b 331 -1 368 7 403 22 b 420 7 443 -1 466 -1 b 522 -1 567 44 567 99 l 567 661 b 567 717 522 762 466 762 z m 293 200 b 253 200 221 232 221 272 b 221 312 252 345 293 345 b 333 345 366 312 366 272 b 366 232 333 200 293 200 z"},"1":{"x_min":0,"x_max":399,"ha":399,"o":"m 244 767 l 92 767 b 50 767 16 733 16 691 b 16 649 50 615 92 615 l 139 615 l 139 108 b 139 50 186 3 244 3 b 302 3 349 50 349 108 l 349 662 b 349 720 302 767 244 767 z"},"5":{"x_min":0,"x_max":646,"ha":646,"o":"m 311 486 l 258 485 l 258 523 b 258 527 258 532 257 537 l 258 537 l 258 556 l 453 556 b 511 556 560 602 561 658 b 562 687 552 714 532 735 b 512 756 485 767 456 767 l 183 767 b 108 767 47 706 47 631 l 47 409 b 47 350 94 303 153 303 b 194 303 247 303 292 303 b 395 303 395 280 395 257 b 395 215 327 213 314 213 b 275 213 245 225 225 248 b 200 275 162 287 126 279 b 91 271 63 246 52 211 b 41 175 49 135 74 108 b 120 57 180 3 314 3 b 486 3 606 107 606 257 b 606 436 469 486 311 486 z"}}}
